<svg width="40" height="36" viewBox="0 0 40 36" fill="none" xmlns="http://www.w3.org/2000/svg">
<path d="M19.8107 0C20.1802 0.0281219 20.3274 0.131454 20.5178 0.443161C22.0211 2.90523 23.6159 5.31259 25.0821 7.79684C25.2027 8.0011 25.2701 8.20627 25.3332 8.43312C25.1534 9.19954 22.8231 12.766 22.2189 13.727L18.3213 19.9209L14.5466 25.91C13.8351 27.0423 12.384 29.6205 11.4094 30.4394C10.4096 31.2794 7.58075 31.0715 6.1701 31.0644C4.77337 31.0765 3.37078 31.0982 1.97418 31.0714C1.64935 31.0651 0.92059 31.056 0.704403 30.786C0.65826 30.4785 0.848934 30.1875 1.00714 29.9308C2.42279 27.6315 3.88287 25.3399 5.32196 23.0558L12.6435 11.3847L17.0949 4.26854C17.9258 2.93007 18.8904 1.24861 19.8107 0Z" fill="#3B82F6"/>
<path d="M26.7449 11.055C26.9337 11.0584 26.973 11.0744 27.1539 11.1335C27.385 11.3646 27.9717 12.3324 28.1644 12.6388L29.9921 15.5516L37.1194 26.9351C37.74 27.9223 38.3705 28.9112 38.9897 29.9001C39.1613 30.1741 39.4474 30.5511 39.2158 30.8518C38.62 31.2111 35.1223 31.072 34.3109 31.0631C33.5756 31.0641 32.672 31.0399 31.9368 31.0668C29.6426 31.1508 28.512 30.8972 27.2572 28.8407C25.9121 26.6358 24.4828 24.407 23.1094 22.2104C22.5952 21.3882 21.8633 20.3525 21.5908 19.4389C21.5955 19.4257 21.6001 19.4125 21.6047 19.3994L21.6293 19.3339C21.9172 18.5464 23.5076 16.1324 24.0546 15.263C24.8534 13.9933 25.8817 12.1976 26.7449 11.055Z" fill="#3B82F6"/>
<path d="M19.9688 21.7317C20.3529 22.0253 21.8351 24.6743 22.1881 25.247C23.1626 26.8282 24.7553 28.7227 24.9301 30.5925C25.0499 31.9283 24.627 33.256 23.7564 34.2755C22.7556 35.4542 21.5651 35.8843 20.0679 36C17.7007 35.9836 15.7149 34.4754 15.16 32.154C14.9608 31.3513 14.9863 30.5092 15.2338 29.72C15.5828 28.5891 16.7174 26.9276 17.3724 25.8848L19.9688 21.7317Z" fill="#3B82F6"/>
</svg>
